<?xml version="1.0" standalone="no"?>
<!DOCTYPE svg PUBLIC "-//W3C//DTD SVG 20010904//EN"
 "http://www.w3.org/TR/2001/REC-SVG-20010904/DTD/svg10.dtd">
<svg version="1.0" xmlns="http://www.w3.org/2000/svg"
 width="310.000000pt" height="310.000000pt" viewBox="0 0 310.000000 310.000000"
 preserveAspectRatio="xMidYMid meet">
<metadata>
Created by potrace 1.16, written by Peter Selinger 2001-2019
</metadata>
<g transform="translate(0.000000,310.000000) scale(0.100000,-0.100000)"
fill="#000000" stroke="none">
<path d="M0 2258 c0 -463 2 -839 4 -837 19 22 250 460 252 479 2 14 85 176
185 360 244 451 243 449 240 488 -1 18 4 44 13 57 8 13 73 69 143 125 70 56
141 117 156 136 l28 34 -510 0 -511 0 0 -842z"/>
<path d="M1104 3078 c9 -12 16 -36 16 -54 0 -24 26 -65 125 -192 69 -89 129
-162 134 -162 4 0 78 -89 163 -197 110 -141 157 -208 162 -234 4 -24 14 -39
30 -47 59 -27 136 -121 136 -166 0 -13 36 -15 245 -18 156 -2 248 -7 255 -14
7 -7 -8 -8 -52 -3 -78 10 -387 1 -448 -12 -95 -21 -202 -124 -281 -272 -17
-33 -35 -55 -39 -50 -4 4 -65 118 -134 253 -69 135 -126 242 -126 239 0 -3 56
-127 125 -275 114 -243 125 -271 114 -294 -13 -29 1 -54 -107 190 -30 69 -108
235 -174 370 -118 243 -155 322 -219 472 -37 89 -48 99 -18 16 l21 -56 -317
-543 c-175 -299 -324 -551 -331 -560 -8 -8 -14 -23 -14 -32 0 -37 -36 -57
-102 -55 -52 1 -75 -4 -130 -30 -104 -50 -110 -61 -105 -239 2 -81 9 -159 14
-173 13 -32 6 -58 -23 -77 l-24 -15 0 -424 0 -424 1550 0 1550 0 0 1550 0
1550 -1006 0 -1005 0 15 -22z m906 -1481 l0 -263 -127 -18 c-71 -10 -186 -26
-256 -35 l-129 -18 6 29 c3 16 12 44 21 61 8 18 28 69 44 113 38 104 104 235
148 297 53 72 105 95 221 96 l72 1 0 -263z m267 244 c30 -14 48 -32 65 -63 21
-40 22 -56 23 -223 l0 -180 -83 -9 c-46 -4 -86 -6 -89 -3 -3 3 -2 116 2 251 9
275 4 262 82 227z m576 -462 c12 -7 25 -17 29 -23 4 -6 8 -158 8 -337 l0 -326
-716 0 -715 0 -20 25 c-13 17 -19 40 -19 76 l0 51 525 165 525 165 0 81 c0 89
10 107 66 124 44 13 292 12 317 -1z m-2562 -18 l28 -6 -35 -63 -35 -62 -26 20
c-14 11 -34 20 -45 20 -26 0 -78 -28 -78 -42 0 -6 -3 -9 -6 -6 -3 3 8 33 25
67 28 55 35 62 78 74 27 8 52 12 57 9 5 -3 22 -8 37 -11z m1719 -181 c0 -40
-4 -52 -22 -64 -13 -8 -104 -40 -202 -71 -145 -45 -190 -56 -239 -54 l-59 2 6
64 c8 82 13 91 49 109 27 14 346 60 435 63 32 1 32 1 32 -49z m-1642 11 c18
-6 60 -34 93 -65 58 -52 135 -97 224 -131 l40 -15 -35 6 c-78 14 -201 77 -294
153 -45 36 -93 41 -154 16 l-37 -16 21 22 c18 18 60 34 99 38 6 1 25 -3 43 -8z
m602 -221 c0 -33 -3 -60 -7 -60 -5 0 -18 15 -29 33 -22 33 -22 33 -2 60 11 15
24 27 29 27 5 0 9 -27 9 -60z"/>
<path d="M2540 1290 c0 -19 7 -20 155 -20 148 0 155 1 155 20 0 19 -7 20 -155
20 -148 0 -155 -1 -155 -20z"/>
<path d="M2540 1210 c0 -20 5 -20 152 -18 136 3 153 5 156 21 3 16 -9 17 -152
17 -150 0 -156 -1 -156 -20z"/>
<path d="M2540 1130 c0 -20 5 -20 152 -18 136 3 153 5 156 21 3 16 -9 17 -152
17 -150 0 -156 -1 -156 -20z"/>
<path d="M2540 1055 c0 -13 24 -15 155 -15 131 0 155 2 155 15 0 13 -24 15
-155 15 -131 0 -155 -2 -155 -15z"/>
<path d="M2540 980 c0 -19 6 -20 156 -20 143 0 155 1 152 18 -3 15 -20 17
-156 20 -147 2 -152 2 -152 -18z"/>
<path d="M1032 3038 c-18 -18 -15 -36 7 -48 15 -7 23 -6 35 6 9 8 16 19 16 23
0 11 -23 31 -35 31 -6 0 -16 -5 -23 -12z"/>
<path d="M1130 2911 c0 -7 21 -38 48 -69 47 -57 47 -57 8 -23 -54 46 -101 64
-144 56 -51 -9 -127 -93 -187 -205 -62 -117 -77 -136 -126 -160 -43 -22 -51
-14 -18 16 31 28 73 114 61 126 -7 7 -12 3 -17 -11 -5 -17 -12 -20 -28 -15
-19 6 -20 5 -10 -8 11 -12 7 -26 -19 -74 -17 -32 -47 -77 -68 -99 -61 -66 -81
-100 -67 -114 9 -9 9 -16 0 -30 -6 -10 -34 -60 -61 -112 -137 -259 -179 -328
-190 -317 -9 9 -12 9 -12 -2 0 -8 -56 -114 -125 -234 -68 -121 -123 -222 -121
-223 2 -2 19 5 37 16 19 10 53 25 75 31 l42 12 133 272 c73 149 177 360 231
469 54 109 98 201 98 204 0 3 -8 -1 -17 -8 -17 -13 -17 -13 -2 11 9 14 40 37
70 52 61 30 99 70 136 142 14 27 41 74 61 103 l36 54 12 -28 c12 -28 12 -28 7
8 -4 31 -1 39 27 62 92 78 149 33 400 -323 149 -210 218 -289 303 -348 78 -54
101 -80 114 -130 6 -24 11 -29 22 -22 12 7 13 15 3 47 -14 46 -58 94 -130 140
-54 35 -123 116 -286 336 -47 65 -84 123 -80 129 4 6 3 8 -3 5 -9 -6 -88 88
-88 104 0 5 -7 14 -15 21 -12 11 -12 10 0 -7 14 -19 14 -19 -3 -6 -9 7 -16 19
-15 25 2 7 -18 41 -44 76 -27 35 -48 58 -48 51z"/>
<path d="M1030 2795 c-25 -30 15 -70 45 -45 19 16 19 25 -1 44 -19 20 -28 20
-44 1z"/>
<path d="M739 2774 c-16 -20 0 -49 27 -49 22 0 31 30 14 50 -16 19 -24 19 -41
-1z"/>
<path d="M1161 2728 c2 -2 17 -14 33 -28 l29 -25 -18 28 c-9 15 -24 27 -33 27
-8 0 -13 -1 -11 -2z"/>
<path d="M1735 2073 c27 -45 65 -89 65 -75 0 18 -19 53 -43 80 -28 31 -42 28
-22 -5z"/>
<path d="M260 1471 c-16 -31 4 -63 37 -59 34 4 52 32 37 56 -16 26 -60 28 -74
3z"/>
<path d="M0 1320 c0 -18 4 -29 10 -25 6 3 10 15 10 25 0 10 -4 22 -10 25 -6 4
-10 -7 -10 -25z"/>
<path d="M0 915 c0 -25 4 -35 12 -33 19 7 21 43 3 58 -13 11 -15 8 -15 -25z"/>
</g>
</svg>
